<?xml version="1.0" encoding="iso-8859-1"?>
<!-- Generator: Adobe Illustrator 22.0.1, SVG Export Plug-In . SVG Version: 6.00 Build 0)  -->
<svg version="1.1" id="Layer_1" xmlns="http://www.w3.org/2000/svg" xmlns:xlink="http://www.w3.org/1999/xlink" x="0px" y="0px"
	 viewBox="0 0 128 128" style="enable-background:new 0 0 128 128;" xml:space="preserve">
<g id="_x31_3">
	<polygon points="128,28.27 128,106.43 0,106.43 0,28.27 8.84,28.27 8.84,33.07 4.8,33.07 4.8,101.63 123.2,101.63 123.2,33.07 
		119.16,33.07 119.16,28.27 	"/>
	<path style="fill:#D93200;" d="M89.85,22.06c-15.27,1.68-24.22,7.07-24.22,7.07v72.5h2.44c4.18-1.39,13.22-4.12,22.88-5.18
		c13.24-1.46,25.64,0.44,25.64,0.44V23.53C116.59,23.53,105.11,20.38,89.85,22.06z M38.04,22.06c-15.27-1.68-26.75,1.47-26.75,1.47
		v73.36c0,0,12.4-1.9,25.64-0.44c9.66,1.06,18.7,3.79,22.88,5.18h2.44v-72.5C62.25,29.13,53.31,23.74,38.04,22.06z"/>
</g>
<g id="Layer_1_1_">
</g>
</svg>
