<svg xmlns="http://www.w3.org/2000/svg" xmlns:xlink="http://www.w3.org/1999/xlink" width="492" zoomAndPan="magnify" viewBox="0 0 369 266.999984" height="356" preserveAspectRatio="xMidYMid meet" version="1.0"><defs><clipPath id="id1"><path d="M 244 227 L 275 227 L 275 243.761719 L 244 243.761719 Z M 244 227 " clip-rule="nonzero"/></clipPath><clipPath id="id2"><path d="M 255 46 L 368.65625 46 L 368.65625 224 L 255 224 Z M 255 46 " clip-rule="nonzero"/></clipPath></defs><path fill="rgb(14.118958%, 17.649841%, 21.179199%)" d="M 211.839844 220.609375 C 210.582031 221.886719 208.90625 223.425781 206.820312 225.007812 C 205.496094 226.015625 204.003906 227.035156 202.34375 228.019531 C 198.957031 230.015625 185.214844 238.144531 173.792969 233.511719 C 173.253906 233.300781 172.730469 233.050781 172.21875 232.785156 C 167.800781 230.445312 164.617188 226.140625 160.441406 218.0625 C 157.960938 213.273438 155.128906 207.148438 152.445312 199.636719 C 150.128906 193.152344 147.925781 185.625 146.179688 177.066406 C 145.53125 178.070312 144.867188 179.070312 144.191406 180.078125 C 140.742188 185.273438 136.746094 190.609375 132.5625 195.84375 L 132.554688 195.84375 C 124.082031 206.441406 114.796875 216.652344 107.5 224.453125 C 106.960938 224.273438 106.410156 224.085938 105.847656 223.875 C 103.578125 223.035156 101.210938 221.941406 98.800781 220.5 C 97.351562 219.648438 96.03125 218.75 94.820312 217.832031 C 91.847656 215.589844 89.546875 213.242188 87.832031 211.222656 C 91.816406 205.699219 95.617188 200.511719 99.199219 195.726562 C 112.574219 177.828125 122.800781 165.386719 127.429688 160.695312 C 132.429688 155.632812 137.386719 151.507812 137.386719 151.507812 C 138.117188 150.898438 138.828125 150.320312 139.523438 149.765625 C 143.761719 146.378906 148.535156 143.703125 153.625 141.808594 C 155.027344 141.058594 157.398438 140.039062 160.316406 140.039062 C 160.582031 140.039062 160.855469 140.046875 161.136719 140.0625 C 161.261719 140.070312 161.386719 140.085938 161.511719 140.101562 C 167.214844 140.644531 170.9375 144.984375 173.003906 147.394531 C 175.789062 150.640625 177.34375 153.925781 178.140625 155.953125 C 178.46875 156.773438 178.667969 157.382812 178.769531 157.703125 C 180.019531 161.546875 181.835938 166.859375 184.132812 173.453125 C 187.207031 182.292969 191.152344 193.441406 195.703125 206.433594 C 196.039062 207.382812 196.375 208.34375 196.71875 209.320312 L 202.601562 212.46875 L 208.28125 218.671875 L 211.839844 220.609375 " fill-opacity="1" fill-rule="nonzero"/><path fill="rgb(100%, 87.059021%, 71.369934%)" d="M 240.125 47.21875 L 233.09375 78.011719 C 232.492188 78.128906 231.945312 78.246094 231.425781 78.371094 C 231.269531 78.410156 231.105469 78.449219 230.957031 78.488281 C 230.222656 78.667969 229.582031 78.847656 229.042969 78.972656 C 228.894531 79.011719 228.761719 79.042969 228.628906 79.066406 C 228.550781 79.082031 228.472656 79.097656 228.398438 79.113281 C 228.328125 79.121094 228.265625 79.136719 228.210938 79.144531 C 228.179688 79.144531 228.148438 79.152344 228.125 79.152344 C 228.0625 79.160156 228.007812 79.167969 227.953125 79.167969 C 227.5 79.207031 227.171875 79.128906 226.960938 78.878906 C 226.234375 78.011719 227.867188 76.09375 227.046875 75.21875 C 226.359375 74.484375 224.503906 75.070312 223.472656 75.5625 C 222.09375 76.226562 220.898438 77.324219 218.667969 81.242188 C 216.433594 85.167969 215.3125 87.132812 215.78125 88.398438 C 216.082031 89.183594 216.699219 89.871094 217.480469 90.417969 C 215.789062 92.15625 213.78125 94.769531 212.558594 98.351562 C 211.667969 100.957031 210.433594 104.601562 212.027344 108.566406 C 213.398438 111.972656 217.636719 113.480469 220.460938 114.199219 C 219.875 115.726562 219.257812 117.265625 218.628906 118.824219 C 216.253906 118.207031 213.054688 117.816406 209.585938 118.699219 C 204.496094 119.988281 201.3125 123.410156 199.199219 125.855469 C 192.402344 133.734375 184.585938 145.640625 179.332031 154.035156 C 176.5 146.238281 171.507812 132.09375 169.34375 123.589844 C 168.863281 121.71875 168.542969 120.414062 168.746094 118.691406 C 168.824219 118.042969 168.949219 117.535156 169.058594 116.976562 L 186.886719 102.542969 L 161.089844 69.15625 L 157.8125 71.242188 C 157.125 70.53125 156.433594 69.84375 155.746094 69.15625 C 152.8125 71.054688 149.285156 73.910156 146.203125 78.097656 C 145.09375 79.605469 143.199219 83.558594 142.105469 85.871094 C 142.121094 85.878906 142.136719 85.894531 142.152344 85.910156 L 142.082031 85.910156 C 137.160156 85.855469 131.105469 86.617188 124.988281 89.535156 C 124.167969 89.925781 123.386719 90.339844 122.644531 90.761719 C 122.527344 90.832031 122.40625 90.902344 122.289062 90.964844 L 120.898438 92.984375 L 114.992188 95.207031 L 128.085938 118.191406 L 139.65625 134.761719 L 154.246094 126.6875 C 154.542969 127.34375 154.933594 128.101562 155.457031 128.914062 C 156.621094 130.722656 157.828125 131.816406 158.164062 132.140625 C 159.320312 133.273438 160.636719 135.472656 161.511719 140.101562 C 161.386719 140.085938 161.261719 140.070312 161.136719 140.0625 C 160.855469 140.046875 160.582031 140.039062 160.316406 140.039062 C 157.398438 140.039062 155.027344 141.058594 153.625 141.808594 C 148.535156 143.703125 143.761719 146.378906 139.523438 149.765625 C 138.828125 150.320312 138.117188 150.898438 137.386719 151.507812 C 137.386719 151.507812 132.429688 155.632812 127.429688 160.695312 C 122.800781 165.386719 112.574219 177.828125 99.199219 195.726562 C 96.007812 196.195312 92.683594 196.859375 89.234375 197.773438 C 97.242188 151.601562 108.289062 103.113281 123.246094 52.90625 C 125.90625 43.972656 128.632812 35.171875 131.425781 26.488281 C 156.144531 23.570312 191.316406 23.773438 226.960938 40.335938 C 231.617188 42.492188 236.003906 44.808594 240.125 47.21875 " fill-opacity="1" fill-rule="nonzero"/><path fill="rgb(3.529358%, 3.529358%, 3.529358%)" d="M 247.652344 93.546875 C 247.535156 95.292969 248.816406 95.878906 248.871094 98.265625 C 248.886719 98.890625 248.910156 99.640625 248.527344 100.449219 C 247.902344 101.761719 246.757812 102.066406 245.03125 103.066406 C 242.238281 104.695312 242.785156 105.335938 240.320312 106.652344 C 239.179688 107.261719 237.636719 108.058594 235.550781 108.128906 C 235.488281 108.128906 235.417969 108.128906 235.339844 108.128906 C 233.664062 108.152344 232.28125 107.691406 231.308594 107.238281 C 232.539062 106.933594 233.78125 106.324219 234.46875 105.164062 C 234.667969 104.835938 235.472656 103.484375 234.910156 102.285156 C 234.484375 101.402344 233.5625 101.082031 233.242188 100.972656 C 232.078125 100.574219 230.941406 100.910156 230.175781 101.277344 C 229.707031 100.265625 229.714844 99.507812 229.839844 98.960938 C 230.175781 97.5625 231.53125 96.746094 232.109375 94.507812 C 232.21875 94.101562 232.296875 93.664062 232.109375 93.546875 C 231.835938 93.367188 231.175781 94.078125 230.542969 94.507812 C 228.675781 95.785156 225.609375 95.636719 224.957031 94.507812 C 224.316406 93.4375 226.054688 91.6875 225.476562 91.105469 C 225.082031 90.707031 224.121094 91.371094 222.949219 91.628906 C 221.195312 92.015625 219.011719 91.480469 217.480469 90.417969 C 216.699219 89.871094 216.082031 89.183594 215.78125 88.398438 C 215.3125 87.132812 216.433594 85.167969 218.667969 81.242188 C 220.898438 77.324219 222.09375 76.226562 223.472656 75.5625 C 224.503906 75.070312 226.359375 74.484375 227.046875 75.21875 C 227.867188 76.09375 226.234375 78.011719 226.960938 78.878906 C 227.171875 79.128906 227.5 79.207031 227.953125 79.167969 C 228.007812 79.167969 228.0625 79.160156 228.125 79.152344 C 228.148438 79.152344 228.179688 79.144531 228.210938 79.144531 C 228.265625 79.136719 228.328125 79.128906 228.398438 79.113281 C 228.472656 79.097656 228.550781 79.082031 228.628906 79.066406 C 228.761719 79.042969 228.894531 79.011719 229.042969 78.972656 C 229.582031 78.847656 230.222656 78.667969 230.957031 78.488281 C 231.105469 78.449219 231.269531 78.410156 231.425781 78.371094 C 231.945312 78.246094 232.492188 78.128906 233.09375 78.011719 C 233.117188 78.011719 233.148438 78.003906 233.171875 77.996094 C 233.320312 77.972656 233.476562 77.941406 233.625 77.917969 C 233.835938 77.886719 234.0625 77.847656 234.289062 77.816406 C 234.476562 77.792969 234.675781 77.769531 234.871094 77.738281 C 235.105469 77.707031 235.347656 77.683594 235.605469 77.660156 C 239.546875 77.289062 240.101562 78.113281 240.226562 78.355469 C 240.75 79.363281 239.15625 80.609375 239.703125 81.851562 C 240.015625 82.546875 240.796875 82.78125 243.113281 83.332031 C 248.105469 84.519531 248.746094 84.417969 249.308594 85.167969 C 250.53125 86.789062 249.417969 89.746094 249.136719 90.496094 C 248.441406 92.34375 247.746094 92.289062 247.652344 93.546875 " fill-opacity="1" fill-rule="nonzero"/><path fill="rgb(100%, 43.919373%, 30.589294%)" d="M 235.550781 108.128906 C 235.253906 109 234.964844 109.882812 234.691406 110.796875 C 233.898438 113.363281 233.265625 115.867188 232.757812 118.261719 C 230.597656 118.839844 227.078125 122.523438 220.585938 124.113281 C 218.839844 124.542969 217.308594 124.707031 216.183594 124.769531 C 216.550781 123.894531 216.925781 123 217.292969 122.101562 C 217.660156 121.21875 218.019531 120.332031 218.378906 119.441406 C 218.464844 119.230469 218.550781 119.027344 218.628906 118.824219 C 219.257812 117.265625 219.875 115.726562 220.460938 114.199219 C 217.636719 113.480469 213.398438 111.972656 212.027344 108.566406 C 210.433594 104.601562 211.667969 100.957031 212.558594 98.351562 C 213.78125 94.769531 215.789062 92.15625 217.480469 90.417969 C 219.011719 91.480469 221.195312 92.015625 222.949219 91.628906 C 224.121094 91.371094 225.082031 90.707031 225.476562 91.105469 C 226.054688 91.6875 224.316406 93.4375 224.957031 94.507812 C 225.609375 95.636719 228.675781 95.785156 230.542969 94.507812 C 231.175781 94.078125 231.835938 93.367188 232.109375 93.546875 C 232.296875 93.664062 232.21875 94.101562 232.109375 94.507812 C 231.53125 96.746094 230.175781 97.5625 229.839844 98.960938 C 229.714844 99.507812 229.707031 100.265625 230.175781 101.277344 C 230.941406 100.910156 232.078125 100.574219 233.242188 100.972656 C 233.5625 101.082031 234.484375 101.402344 234.910156 102.285156 C 235.472656 103.484375 234.667969 104.835938 234.46875 105.164062 C 233.78125 106.324219 232.539062 106.933594 231.308594 107.238281 C 232.28125 107.691406 233.664062 108.152344 235.339844 108.128906 C 235.417969 108.128906 235.488281 108.128906 235.550781 108.128906 " fill-opacity="1" fill-rule="nonzero"/><path fill="rgb(73.728943%, 22.349548%, 14.898682%)" d="M 255.746094 223.621094 C 255.746094 224.796875 255.730469 225.984375 255.714844 227.183594 C 255.660156 227.191406 255.605469 227.199219 255.550781 227.207031 C 253.109375 227.480469 250.265625 227.597656 247.128906 227.363281 C 246.742188 227.332031 246.367188 227.300781 245.992188 227.261719 C 243.597656 227.027344 241.417969 226.609375 239.484375 226.125 C 239.460938 225.445312 239.445312 224.757812 239.421875 224.085938 C 239.328125 221.089844 239.171875 218.21875 238.960938 215.496094 C 238.453125 208.820312 237.621094 202.945312 236.597656 197.773438 C 235.910156 194.300781 235.136719 191.148438 234.304688 188.277344 C 233.101562 184.101562 231.804688 180.523438 230.496094 177.457031 C 227.484375 170.378906 226.398438 166.328125 224.214844 158.207031 C 222.988281 153.675781 219.859375 141.386719 222.769531 130.707031 C 223.691406 127.320312 225.027344 124.785156 227.484375 123.234375 C 228.265625 122.742188 229.074219 122.40625 229.847656 122.1875 C 230.371094 122.039062 230.902344 121.960938 231.433594 121.960938 C 231.640625 121.960938 231.84375 121.976562 232.054688 122 C 233.070312 122.101562 234.054688 122.484375 234.902344 123.09375 C 235.066406 123.21875 235.238281 123.355469 235.394531 123.496094 C 235.589844 123.675781 235.777344 123.863281 235.949219 124.066406 C 238.070312 126.585938 240.578125 130.183594 242.324219 134.941406 C 243.347656 137.726562 243.746094 139.914062 243.902344 140.699219 C 246.65625 155.546875 250.152344 163.761719 252.976562 183.308594 C 253.425781 186.382812 253.863281 189.804688 254.253906 193.558594 C 254.894531 199.738281 255.417969 206.828125 255.636719 214.726562 C 255.714844 217.589844 255.753906 220.554688 255.746094 223.621094 " fill-opacity="1" fill-rule="nonzero"/><g clip-path="url(#id1)"><path fill="rgb(100%, 43.919373%, 30.589294%)" d="M 272.652344 236.25 C 273.371094 236.382812 273.707031 236.5 273.714844 236.65625 C 273.730469 237.148438 270.453125 237.78125 267.558594 237.96875 C 263.046875 238.269531 257.875 237.609375 257.609375 237.570312 C 255.511719 237.304688 254.097656 237 252.367188 237.703125 C 251.789062 237.9375 250.128906 238.652344 249.355469 240.066406 C 249.238281 240.285156 249.058594 240.660156 248.699219 241.203125 C 248.496094 241.507812 248.003906 242.234375 247.433594 242.726562 C 246.296875 243.703125 244.445312 244.058594 244.117188 243.554688 C 243.910156 243.25 244.453125 242.835938 245.210938 241.203125 C 245.570312 240.417969 245.960938 239.574219 246.164062 238.449219 C 246.4375 237.007812 246.101562 236.789062 246.515625 235.828125 C 246.796875 235.175781 247.128906 234.910156 247.261719 234.167969 C 247.371094 233.558594 247.277344 233.058594 247.214844 232.777344 C 247.03125 231.890625 246.601562 229.929688 245.992188 227.261719 C 246.367188 227.300781 246.742188 227.332031 247.128906 227.363281 C 250.265625 227.597656 253.109375 227.480469 255.550781 227.207031 C 255.597656 227.269531 255.652344 227.332031 255.707031 227.394531 C 256.578125 228.378906 257.625 229.316406 258.890625 230.109375 C 259.515625 230.5 260.144531 230.828125 260.753906 231.09375 C 261.488281 231.445312 262.628906 231.921875 264.085938 232.273438 C 267.714844 233.128906 270.554688 232.691406 270.773438 233.425781 C 270.828125 233.613281 270.6875 233.769531 269.984375 234.246094 C 272.035156 234.589844 271.875 234.621094 272.535156 234.628906 C 273.339844 234.636719 274.167969 234.597656 274.253906 234.894531 C 274.355469 235.199219 273.574219 235.734375 272.652344 236.25 " fill-opacity="1" fill-rule="nonzero"/></g><path fill="rgb(100%, 100%, 100%)" d="M 146.171875 177.316406 C 146.132812 177.316406 146.078125 177.308594 146.039062 177.277344 C 145.921875 177.199219 145.890625 177.042969 145.960938 176.925781 C 148.988281 172.28125 151.929688 167.476562 154.714844 162.664062 C 154.785156 162.539062 154.941406 162.5 155.058594 162.570312 C 155.183594 162.640625 155.222656 162.796875 155.152344 162.914062 C 152.367188 167.742188 149.417969 172.546875 146.390625 177.207031 C 146.34375 177.277344 146.257812 177.316406 146.171875 177.316406 " fill-opacity="1" fill-rule="nonzero"/><path fill="rgb(100%, 43.919373%, 30.589294%)" d="M 105.847656 223.875 C 105.558594 224.359375 105.285156 224.835938 105.035156 225.289062 C 104.246094 226.730469 103.617188 228.003906 103.132812 229.074219 C 99.855469 228.777344 95.476562 227.910156 90.890625 225.523438 C 89.671875 224.890625 88.570312 224.21875 87.574219 223.527344 C 88.167969 223.128906 88.765625 222.699219 89.367188 222.253906 C 89.570312 222.105469 89.773438 221.957031 89.96875 221.800781 C 91.714844 220.484375 93.324219 219.15625 94.820312 217.832031 C 96.03125 218.75 97.351562 219.648438 98.800781 220.5 C 101.210938 221.941406 103.578125 223.035156 105.847656 223.875 " fill-opacity="1" fill-rule="nonzero"/><path fill="rgb(3.529358%, 3.529358%, 3.529358%)" d="M 103.132812 229.074219 C 103.085938 229.191406 103.03125 229.300781 102.984375 229.410156 C 101.585938 232.582031 101.101562 234.527344 99.144531 235.523438 C 97.972656 236.125 97.125 235.9375 94.082031 235.875 C 90.1875 235.789062 90.203125 236.0625 86.574219 236.046875 C 80.949219 236.023438 68.042969 235.960938 67.714844 233.777344 C 67.441406 231.921875 76.695312 230.984375 87.574219 223.527344 C 88.570312 224.21875 89.671875 224.890625 90.890625 225.523438 C 95.476562 227.910156 99.855469 228.777344 103.132812 229.074219 " fill-opacity="1" fill-rule="nonzero"/><path fill="rgb(97.24884%, 74.899292%, 43.528748%)" d="M 144.898438 128.125 L 140.4375 131.183594 C 133.710938 122.703125 127.140625 112.605469 121.664062 100.714844 C 120.835938 98.890625 120.054688 97.082031 119.308594 95.300781 L 120.898438 92.984375 L 122.289062 90.964844 C 122.40625 90.902344 122.527344 90.832031 122.644531 90.761719 C 124.589844 92.898438 126.554688 95.222656 128.476562 97.742188 C 136.675781 108.433594 141.714844 119.160156 144.898438 128.125 " fill-opacity="1" fill-rule="nonzero"/><path fill="rgb(100%, 100%, 100%)" d="M 163.164062 117.078125 L 162.003906 117.605469 C 160.074219 118.035156 157.726562 118.746094 155.199219 119.964844 C 151.0625 121.953125 146.742188 126.226562 144.898438 128.125 C 141.714844 119.160156 136.675781 108.433594 128.476562 97.742188 C 126.554688 95.222656 124.589844 92.898438 122.644531 90.761719 C 123.386719 90.339844 124.167969 89.925781 124.988281 89.535156 C 131.105469 86.617188 137.160156 85.855469 142.082031 85.910156 L 142.152344 85.910156 C 142.566406 86.296875 142.988281 86.6875 143.410156 87.085938 C 153.054688 96.316406 159.195312 106.996094 163.164062 117.078125 " fill-opacity="1" fill-rule="nonzero"/><path fill="rgb(97.24884%, 74.899292%, 43.528748%)" d="M 181.363281 100.597656 C 178.34375 102.308594 174.769531 104.710938 171.171875 108.042969 C 170.117188 109.023438 169.144531 110 168.253906 110.960938 C 168.066406 110.570312 167.808594 110.007812 167.410156 109.164062 C 167.230469 108.769531 167.050781 108.394531 166.863281 108.011719 C 166.558594 108.519531 166.183594 109.242188 165.9375 110.140625 C 165.523438 111.625 165.648438 112.816406 165.71875 113.910156 C 164.867188 114.96875 164.109375 115.992188 163.445312 116.953125 L 163.164062 117.078125 C 159.195312 106.996094 153.054688 96.316406 143.410156 87.085938 C 142.988281 86.6875 142.566406 86.296875 142.152344 85.910156 C 142.136719 85.894531 142.121094 85.878906 142.105469 85.871094 C 143.199219 83.558594 145.09375 79.605469 146.203125 78.097656 C 149.285156 73.910156 152.8125 71.054688 155.746094 69.15625 C 156.433594 69.84375 157.125 70.53125 157.8125 71.242188 C 159.679688 73.160156 161.566406 75.164062 163.445312 77.265625 C 170.585938 85.238281 176.492188 93.15625 181.363281 100.597656 " fill-opacity="1" fill-rule="nonzero"/><path fill="rgb(62.348938%, 44.309998%, 21.958923%)" d="M 165.234375 116.953125 C 164.726562 117.902344 164.367188 117.761719 163.578125 118.785156 C 163.195312 119.285156 162.824219 119.902344 162.535156 120.6875 L 140.4375 131.183594 L 144.898438 128.125 C 146.742188 126.226562 151.0625 121.953125 155.199219 119.964844 C 157.726562 118.746094 160.074219 118.035156 162.003906 117.605469 L 163.164062 117.078125 L 163.445312 116.953125 C 164.109375 115.992188 164.867188 114.96875 165.71875 113.910156 C 165.789062 114.945312 165.796875 115.90625 165.234375 116.953125 " fill-opacity="1" fill-rule="nonzero"/><path fill="rgb(62.348938%, 44.309998%, 21.958923%)" d="M 169.207031 115.625 C 169.214844 115.421875 169.214844 115.195312 169.207031 114.953125 C 169.191406 114.394531 169.144531 113.371094 168.746094 112.136719 C 168.644531 111.816406 168.542969 111.585938 168.253906 110.960938 C 169.144531 110 170.117188 109.023438 171.171875 108.042969 C 174.769531 104.710938 178.34375 102.308594 181.363281 100.597656 C 181.914062 101.425781 182.4375 102.253906 182.960938 103.066406 L 169.207031 115.625 " fill-opacity="1" fill-rule="nonzero"/><path fill="rgb(3.529358%, 3.529358%, 3.529358%)" d="M 160.261719 119.800781 C 160.082031 120.277344 159.933594 120.828125 159.835938 121.445312 L 159.828125 121.445312 L 151.96875 125.800781 L 137.378906 133.875 L 125.8125 117.296875 L 112.714844 94.320312 L 118.621094 92.101562 L 117.035156 94.40625 C 117.769531 96.199219 118.558594 98.007812 119.386719 99.820312 C 124.863281 111.71875 131.425781 121.8125 138.164062 130.300781 L 160.261719 119.800781 " fill-opacity="1" fill-rule="nonzero"/><path fill="rgb(3.529358%, 3.529358%, 3.529358%)" d="M 169.207031 115.625 L 182.960938 103.066406 C 182.4375 102.253906 181.914062 101.425781 181.363281 100.597656 C 176.492188 93.15625 170.585938 85.238281 163.445312 77.265625 C 161.566406 75.164062 159.679688 73.160156 157.8125 71.242188 L 161.089844 69.15625 L 186.886719 102.542969 L 169.058594 116.976562 C 169.128906 116.578125 169.191406 116.148438 169.207031 115.625 " fill-opacity="1" fill-rule="nonzero"/><path fill="rgb(73.728943%, 22.349548%, 14.898682%)" d="M 222.777344 130.699219 C 219.859375 141.386719 222.996094 153.683594 224.214844 158.207031 C 226.398438 166.316406 227.484375 170.378906 230.496094 177.457031 C 231.804688 180.523438 233.101562 184.101562 234.304688 188.277344 C 233.445312 189.53125 232.601562 190.960938 231.851562 192.566406 C 230.566406 195.304688 229.871094 197.851562 229.386719 200.175781 C 228.273438 205.519531 228.3125 209.574219 225.042969 211.425781 C 223.402344 212.351562 223.144531 211.402344 217.355469 213 C 216.691406 213.179688 216.113281 213.359375 215.601562 213.515625 C 212.121094 214.617188 212.003906 215.175781 210.371094 215.085938 C 206.542969 214.90625 205.621094 211.582031 198.324219 207.757812 C 197.441406 207.296875 196.570312 206.851562 195.703125 206.433594 C 191.152344 193.441406 187.207031 182.292969 184.132812 173.453125 C 181.835938 166.859375 180.019531 161.546875 178.769531 157.703125 C 178.683594 157.4375 178.523438 156.960938 178.28125 156.320312 L 179.207031 153.699219 C 179.246094 153.816406 179.292969 153.925781 179.332031 154.035156 C 184.585938 145.640625 192.402344 133.734375 199.199219 125.855469 C 201.3125 123.410156 204.496094 119.996094 209.585938 118.699219 C 213.054688 117.816406 216.253906 118.214844 218.628906 118.824219 C 218.550781 119.027344 218.464844 119.230469 218.378906 119.441406 C 218.019531 120.332031 217.660156 121.226562 217.292969 122.101562 C 216.925781 123 216.550781 123.886719 216.183594 124.777344 C 217.308594 124.707031 218.839844 124.542969 220.585938 124.113281 C 227.078125 122.523438 230.597656 118.839844 232.765625 118.261719 C 233.210938 118.144531 233.59375 118.160156 233.945312 118.347656 C 234.617188 118.722656 235.230469 119.824219 234.894531 123.09375 C 234.054688 122.484375 233.070312 122.101562 232.054688 122 C 231.84375 121.976562 231.640625 121.960938 231.425781 121.960938 C 230.902344 121.960938 230.371094 122.039062 229.855469 122.1875 C 229.082031 122.40625 228.273438 122.742188 227.484375 123.234375 C 225.027344 124.785156 223.691406 127.328125 222.777344 130.699219 " fill-opacity="1" fill-rule="nonzero"/><path fill="rgb(100%, 43.919373%, 30.589294%)" d="M 179.207031 153.699219 L 178.28125 156.320312 C 178.234375 156.203125 178.195312 156.078125 178.140625 155.953125 C 177.34375 153.925781 175.789062 150.640625 173.003906 147.394531 C 170.945312 144.984375 167.214844 140.644531 161.511719 140.101562 C 160.636719 135.472656 159.320312 133.273438 158.164062 132.148438 C 157.828125 131.816406 156.621094 130.722656 155.457031 128.914062 C 154.933594 128.101562 154.542969 127.335938 154.253906 126.6875 L 162.113281 122.328125 C 162.207031 121.71875 162.355469 121.171875 162.535156 120.6875 C 162.824219 119.902344 163.195312 119.285156 163.578125 118.785156 C 164.367188 117.761719 164.726562 117.910156 165.234375 116.953125 C 165.796875 115.90625 165.78125 114.953125 165.71875 113.910156 C 165.648438 112.816406 165.523438 111.625 165.929688 110.140625 C 166.183594 109.242188 166.558594 108.519531 166.863281 108.011719 C 167.050781 108.394531 167.230469 108.769531 167.410156 109.164062 C 167.800781 110.007812 168.066406 110.570312 168.253906 110.960938 C 168.550781 111.585938 168.644531 111.816406 168.746094 112.136719 C 169.144531 113.371094 169.191406 114.394531 169.199219 114.953125 C 169.214844 115.195312 169.214844 115.421875 169.199219 115.625 C 169.191406 116.148438 169.128906 116.578125 169.058594 116.976562 C 168.957031 117.527344 168.824219 118.042969 168.746094 118.683594 C 168.542969 120.414062 168.863281 121.71875 169.34375 123.589844 C 171.476562 131.96875 176.351562 145.835938 179.207031 153.699219 " fill-opacity="1" fill-rule="nonzero"/><path fill="rgb(100%, 87.059021%, 71.369934%)" d="M 152.445312 199.636719 C 145.023438 197.679688 138.296875 196.53125 132.5625 195.84375 C 136.746094 190.609375 140.742188 185.273438 144.191406 180.078125 C 144.867188 179.070312 145.53125 178.070312 146.179688 177.066406 C 147.925781 185.625 150.128906 193.152344 152.445312 199.636719 " fill-opacity="1" fill-rule="nonzero"/><path fill="rgb(3.529358%, 3.529358%, 3.529358%)" d="M 172.21875 232.785156 C 170.328125 232.996094 168.121094 233.175781 165.671875 233.253906 C 151.585938 233.707031 142.183594 230.398438 132.671875 228.277344 C 127.25 227.066406 119.984375 225.835938 110.996094 225.429688 C 110.996094 225.429688 110.996094 225.429688 110.988281 225.429688 C 109.875 225.164062 108.710938 224.84375 107.5 224.453125 C 114.796875 216.652344 124.082031 206.441406 132.554688 195.84375 L 132.5625 195.84375 C 138.296875 196.53125 145.023438 197.679688 152.445312 199.636719 C 155.128906 207.148438 157.960938 213.273438 160.441406 218.0625 C 164.617188 226.140625 167.800781 230.445312 172.21875 232.785156 " fill-opacity="1" fill-rule="nonzero"/><path fill="rgb(3.529358%, 3.529358%, 3.529358%)" d="M 94.820312 217.832031 C 93.324219 219.15625 91.714844 220.484375 89.96875 221.800781 C 88.953125 222.230469 87.925781 222.644531 86.886719 223.050781 C 69.191406 230.117188 49.035156 235.429688 26.679688 236.921875 C 25.394531 237.007812 24.121094 237.078125 22.84375 237.140625 C 22.132812 236.664062 21.265625 236.015625 20.382812 235.167969 C 18.769531 233.644531 17.105469 231.46875 16.203125 228.542969 C 15.804688 227.238281 15.625 226 15.570312 224.90625 C 15.554688 224.554688 15.546875 224.226562 15.554688 223.90625 C 49.121094 212.28125 67.964844 205.355469 79.238281 201.039062 C 80.527344 200.542969 82.84375 199.652344 86.050781 198.683594 C 87.121094 198.355469 88.183594 198.050781 89.234375 197.773438 C 92.683594 196.859375 96.007812 196.195312 99.199219 195.726562 C 95.617188 200.511719 91.816406 205.699219 87.832031 211.222656 C 89.546875 213.242188 91.847656 215.589844 94.820312 217.832031 " fill-opacity="1" fill-rule="nonzero"/><path fill="rgb(3.529358%, 3.529358%, 3.529358%)" d="M 13.222656 237.828125 C 10.988281 238.675781 10.179688 238.902344 9.304688 238.496094 C 7.65625 237.71875 8.460938 235.898438 6.558594 231.554688 C 4.613281 227.105469 2.617188 226.414062 1.320312 221.863281 C 0.964844 220.617188 0.199219 217.933594 1.058594 217.402344 C 2.21875 216.699219 4.855469 220.828125 10.226562 223.300781 C 10.769531 223.542969 11.308594 223.765625 11.832031 223.960938 C 11.613281 224.960938 11.441406 226.070312 11.363281 227.277344 C 11.074219 231.710938 12.183594 235.390625 13.222656 237.828125 " fill-opacity="1" fill-rule="nonzero"/><path fill="rgb(100%, 43.919373%, 30.589294%)" d="M 20.382812 235.167969 C 19.597656 235.445312 18.691406 235.765625 17.691406 236.140625 C 15.742188 236.851562 14.3125 237.414062 13.222656 237.828125 C 12.183594 235.390625 11.074219 231.710938 11.363281 227.277344 C 11.441406 226.070312 11.613281 224.960938 11.832031 223.960938 C 13.175781 224.4375 14.453125 224.726562 15.570312 224.90625 C 15.625 226 15.804688 227.238281 16.203125 228.542969 C 17.105469 231.46875 18.769531 233.644531 20.382812 235.167969 " fill-opacity="1" fill-rule="nonzero"/><path fill="rgb(100%, 100%, 100%)" d="M 215.601562 213.515625 L 214.203125 216.621094 L 212.292969 220.851562 L 211.839844 220.609375 L 208.28125 218.671875 L 202.601562 212.46875 L 196.71875 209.320312 C 196.375 208.34375 196.039062 207.382812 195.703125 206.433594 C 196.570312 206.851562 197.449219 207.296875 198.324219 207.757812 C 205.621094 211.582031 206.542969 214.90625 210.371094 215.085938 C 212.003906 215.175781 212.121094 214.617188 215.601562 213.515625 " fill-opacity="1" fill-rule="nonzero"/><path fill="rgb(97.24884%, 74.899292%, 43.528748%)" d="M 236.597656 197.773438 C 234.054688 198.550781 231.65625 199.355469 229.386719 200.167969 C 229.878906 197.851562 230.566406 195.296875 231.851562 192.566406 C 232.601562 190.953125 233.453125 189.53125 234.304688 188.277344 C 235.136719 191.148438 235.910156 194.300781 236.597656 197.773438 " fill-opacity="1" fill-rule="nonzero"/><path fill="rgb(97.24884%, 74.899292%, 43.528748%)" d="M 351.640625 29.648438 C 348.667969 36.90625 345.734375 44.269531 342.855469 51.734375 C 324.136719 100.195312 309.707031 147.347656 298.621094 192.449219 C 288.195312 191.15625 274.277344 190.539062 258.210938 192.917969 C 256.875 193.113281 255.550781 193.324219 254.253906 193.558594 C 253.863281 189.804688 253.425781 186.382812 252.976562 183.308594 C 250.152344 163.761719 246.65625 155.546875 243.902344 140.699219 C 243.746094 139.914062 243.347656 137.726562 242.324219 134.941406 C 240.578125 130.183594 238.070312 126.585938 235.949219 124.066406 C 235.777344 123.863281 235.589844 123.675781 235.394531 123.496094 C 235.238281 123.355469 235.066406 123.21875 234.902344 123.09375 C 235.230469 119.816406 234.617188 118.722656 233.945312 118.347656 C 233.601562 118.160156 233.210938 118.144531 232.757812 118.261719 C 233.265625 115.867188 233.898438 113.363281 234.691406 110.796875 C 234.964844 109.882812 235.253906 109 235.550781 108.128906 C 237.636719 108.058594 239.179688 107.261719 240.320312 106.652344 C 242.785156 105.335938 242.238281 104.695312 245.03125 103.066406 C 246.757812 102.066406 247.902344 101.761719 248.527344 100.449219 C 248.910156 99.640625 248.886719 98.890625 248.871094 98.265625 C 248.816406 95.878906 247.535156 95.292969 247.652344 93.546875 C 247.746094 92.289062 248.441406 92.34375 249.136719 90.496094 C 249.417969 89.746094 250.53125 86.789062 249.308594 85.167969 C 248.746094 84.417969 248.105469 84.519531 243.113281 83.332031 C 240.796875 82.78125 240.015625 82.546875 239.703125 81.851562 C 239.15625 80.609375 240.75 79.363281 240.226562 78.355469 C 240.101562 78.113281 239.546875 77.289062 235.605469 77.660156 C 235.347656 77.683594 235.105469 77.707031 234.871094 77.738281 C 234.675781 77.769531 234.476562 77.785156 234.289062 77.816406 C 234.0625 77.847656 233.835938 77.886719 233.625 77.917969 C 233.476562 77.941406 233.320312 77.972656 233.171875 77.996094 C 233.148438 78.003906 233.117188 78.011719 233.09375 78.011719 L 240.125 47.21875 C 249.292969 41.9375 260.699219 36.578125 274.253906 32.605469 C 305.785156 23.359375 333.773438 26.042969 351.640625 29.648438 " fill-opacity="1" fill-rule="nonzero"/><path fill="rgb(100%, 87.059021%, 71.369934%)" d="M 357.132812 58.015625 L 308.9375 212.296875 C 306.789062 210.488281 303.199219 206.9375 300.820312 201.34375 C 299.355469 197.882812 298.816406 194.738281 298.621094 192.449219 C 309.707031 147.347656 324.136719 100.195312 342.855469 51.734375 C 345.734375 44.269531 348.667969 36.90625 351.640625 29.648438 C 351.414062 32.300781 351.359375 35.320312 351.640625 38.628906 C 351.875 41.3125 352.296875 43.824219 352.835938 46.140625 C 353.972656 50.972656 355.621094 54.988281 357.132812 58.015625 " fill-opacity="1" fill-rule="nonzero"/><path fill="rgb(62.348938%, 44.309998%, 21.958923%)" d="M 308.9375 212.296875 L 255.636719 214.726562 C 255.417969 206.828125 254.894531 199.738281 254.253906 193.558594 C 255.550781 193.324219 256.875 193.113281 258.210938 192.917969 C 274.277344 190.539062 288.195312 191.15625 298.621094 192.449219 C 298.816406 194.738281 299.355469 197.882812 300.820312 201.34375 C 303.199219 206.9375 306.789062 210.488281 308.9375 212.296875 " fill-opacity="1" fill-rule="nonzero"/><g clip-path="url(#id2)"><path fill="rgb(7.058716%, 33.329773%, 46.669006%)" d="M 368.65625 47.21875 L 320.203125 221.800781 L 255.746094 223.621094 C 255.753906 220.554688 255.714844 217.589844 255.636719 214.726562 L 308.9375 212.296875 L 357.132812 58.015625 C 355.621094 54.988281 353.972656 50.972656 352.835938 46.140625 L 368.65625 47.21875 " fill-opacity="1" fill-rule="nonzero"/></g><path fill="rgb(62.348938%, 44.309998%, 21.958923%)" d="M 238.960938 215.496094 L 214.203125 216.621094 L 215.601562 213.515625 C 216.113281 213.351562 216.691406 213.179688 217.363281 213 C 223.144531 211.402344 223.410156 212.351562 225.035156 211.425781 C 228.320312 209.574219 228.273438 205.519531 229.386719 200.167969 C 231.65625 199.355469 234.054688 198.550781 236.597656 197.773438 C 237.621094 202.945312 238.453125 208.820312 238.960938 215.496094 " fill-opacity="1" fill-rule="nonzero"/><path fill="rgb(7.058716%, 33.329773%, 46.669006%)" d="M 239.421875 224.085938 L 206.820312 225.007812 C 208.90625 223.425781 210.582031 221.886719 211.839844 220.609375 L 212.292969 220.851562 L 214.203125 216.621094 L 238.960938 215.496094 C 239.171875 218.21875 239.328125 221.089844 239.421875 224.085938 " fill-opacity="1" fill-rule="nonzero"/><path fill="rgb(14.118958%, 17.649841%, 21.179199%)" d="M 246.078125 60.621094 C 245.914062 60.621094 245.75 60.535156 245.65625 60.386719 C 245.5 60.152344 245.570312 59.835938 245.804688 59.679688 C 253.425781 54.769531 261.566406 50.699219 270 47.585938 C 287.648438 41.070312 306.40625 38.675781 325.75 40.484375 C 326.03125 40.507812 326.234375 40.757812 326.210938 41.039062 C 326.1875 41.3125 325.929688 41.523438 325.65625 41.492188 C 306.460938 39.707031 287.851562 42.078125 270.351562 48.539062 C 261.988281 51.625 253.917969 55.660156 246.351562 60.542969 C 246.273438 60.597656 246.171875 60.621094 246.078125 60.621094 " fill-opacity="1" fill-rule="nonzero"/><path fill="rgb(14.118958%, 17.649841%, 21.179199%)" d="M 243.457031 75.8125 C 243.246094 75.8125 243.042969 75.671875 242.980469 75.453125 C 242.894531 75.1875 243.035156 74.90625 243.308594 74.820312 C 250.953125 72.402344 258.8125 70.453125 266.683594 69.039062 C 282.78125 66.136719 299.300781 65.34375 315.792969 66.675781 C 316.074219 66.699219 316.277344 66.941406 316.261719 67.222656 C 316.238281 67.503906 315.996094 67.714844 315.707031 67.691406 C 299.308594 66.363281 282.875 67.152344 266.863281 70.039062 C 259.039062 71.453125 251.21875 73.386719 243.613281 75.789062 C 243.566406 75.804688 243.511719 75.8125 243.457031 75.8125 " fill-opacity="1" fill-rule="nonzero"/><path fill="rgb(14.118958%, 17.649841%, 21.179199%)" d="M 254.464844 91.269531 C 254.207031 91.269531 253.996094 91.082031 253.957031 90.824219 C 253.917969 90.542969 254.113281 90.292969 254.394531 90.253906 C 259.257812 89.589844 264.210938 89.144531 269.109375 88.941406 C 278.449219 88.539062 287.914062 88.988281 297.222656 90.253906 C 297.503906 90.292969 297.699219 90.542969 297.660156 90.824219 C 297.621094 91.105469 297.363281 91.300781 297.089844 91.261719 C 287.835938 90.003906 278.441406 89.566406 269.148438 89.957031 C 264.28125 90.160156 259.367188 90.597656 254.527344 91.261719 C 254.503906 91.261719 254.480469 91.269531 254.464844 91.269531 " fill-opacity="1" fill-rule="nonzero"/><path fill="rgb(14.118958%, 17.649841%, 21.179199%)" d="M 292.964844 125.667969 C 292.917969 125.667969 292.871094 125.660156 292.824219 125.644531 C 282.109375 122.578125 271.117188 121.234375 260.160156 121.648438 C 254.753906 121.859375 249.324219 122.5 244 123.566406 C 243.722656 123.621094 243.449219 123.441406 243.402344 123.164062 C 243.339844 122.882812 243.519531 122.617188 243.792969 122.5625 C 249.175781 121.492188 254.667969 120.84375 260.121094 120.632812 C 271.1875 120.207031 282.28125 121.570312 293.105469 124.667969 C 293.371094 124.746094 293.527344 125.027344 293.449219 125.300781 C 293.386719 125.519531 293.183594 125.667969 292.964844 125.667969 " fill-opacity="1" fill-rule="nonzero"/><path fill="rgb(14.118958%, 17.649841%, 21.179199%)" d="M 224.339844 55.292969 C 224.277344 55.292969 224.214844 55.285156 224.144531 55.253906 C 205.347656 47.585938 185.777344 42.902344 165.976562 41.320312 C 159.125 40.78125 152.15625 40.601562 145.257812 40.796875 C 144.984375 40.8125 144.742188 40.585938 144.734375 40.304688 C 144.726562 40.023438 144.945312 39.785156 145.226562 39.777344 C 152.15625 39.574219 159.171875 39.753906 166.0625 40.304688 C 185.957031 41.890625 205.628906 46.601562 224.535156 54.3125 C 224.792969 54.417969 224.917969 54.714844 224.808594 54.980469 C 224.730469 55.175781 224.542969 55.292969 224.339844 55.292969 " fill-opacity="1" fill-rule="nonzero"/><path fill="rgb(14.118958%, 17.649841%, 21.179199%)" d="M 217.183594 73.277344 C 217.136719 73.277344 217.082031 73.269531 217.035156 73.261719 C 202.429688 68.75 187.355469 65.398438 172.234375 63.320312 C 160.675781 61.730469 148.886719 60.855469 137.207031 60.707031 C 136.925781 60.707031 136.699219 60.472656 136.699219 60.191406 C 136.707031 59.90625 136.933594 59.6875 137.207031 59.6875 C 137.214844 59.6875 137.214844 59.6875 137.214844 59.6875 C 148.941406 59.828125 160.777344 60.714844 172.378906 62.308594 C 187.550781 64.398438 202.671875 67.753906 217.332031 72.285156 C 217.605469 72.371094 217.753906 72.652344 217.667969 72.917969 C 217.605469 73.136719 217.402344 73.277344 217.183594 73.277344 " fill-opacity="1" fill-rule="nonzero"/><path fill="rgb(14.118958%, 17.649841%, 21.179199%)" d="M 185.433594 172.058594 C 185.339844 172.058594 185.238281 172.027344 185.152344 171.972656 C 184.917969 171.816406 184.855469 171.503906 185.011719 171.269531 C 189.453125 164.675781 193.457031 157.695312 196.898438 150.523438 C 199.230469 145.679688 201.335938 140.675781 203.171875 135.636719 C 203.265625 135.371094 203.566406 135.238281 203.824219 135.339844 C 204.097656 135.433594 204.230469 135.722656 204.128906 135.988281 C 202.28125 141.058594 200.160156 146.09375 197.824219 150.960938 C 194.359375 158.183594 190.328125 165.207031 185.855469 171.832031 C 185.753906 171.980469 185.597656 172.058594 185.433594 172.058594 " fill-opacity="1" fill-rule="nonzero"/><path fill="rgb(14.118958%, 17.649841%, 21.179199%)" d="M 240.164062 220.789062 C 239.882812 220.789062 239.648438 220.5625 239.65625 220.28125 C 239.664062 210.933594 238.539062 201.859375 236.316406 193.316406 C 234.816406 187.550781 233.164062 183.363281 231.425781 178.9375 C 229.292969 173.492188 226.875 167.320312 224.316406 157.09375 C 222.324219 149.101562 220.835938 141.261719 224.472656 133.375 C 225.734375 130.644531 227.5 128.132812 229.730469 125.910156 C 229.933594 125.707031 230.253906 125.707031 230.449219 125.910156 C 230.652344 126.105469 230.652344 126.4375 230.449219 126.632812 C 228.304688 128.765625 226.601562 131.183594 225.398438 133.796875 C 221.898438 141.386719 223.363281 149.027344 225.3125 156.84375 C 227.84375 167.007812 230.152344 172.882812 232.382812 178.5625 C 234.125 183.027344 235.777344 187.238281 237.300781 193.058594 C 239.546875 201.6875 240.679688 210.847656 240.671875 220.28125 C 240.671875 220.570312 240.445312 220.789062 240.164062 220.789062 " fill-opacity="1" fill-rule="nonzero"/><path fill="rgb(3.529358%, 3.529358%, 3.529358%)" d="M 272.652344 236.507812 C 272.636719 236.507812 272.621094 236.5 272.605469 236.5 C 272.027344 236.398438 271.210938 236.28125 270.078125 236.125 C 268.597656 235.914062 266.566406 235.632812 263.976562 235.207031 C 259.4375 234.464844 258.4375 234.152344 257.335938 233.472656 C 257.21875 233.394531 257.179688 233.238281 257.257812 233.121094 C 257.335938 232.996094 257.492188 232.964844 257.609375 233.035156 C 258.632812 233.675781 259.613281 233.972656 264.0625 234.707031 C 266.644531 235.128906 268.667969 235.414062 270.148438 235.625 C 271.28125 235.78125 272.105469 235.890625 272.691406 236 C 272.832031 236.03125 272.925781 236.15625 272.902344 236.296875 C 272.878906 236.421875 272.769531 236.507812 272.652344 236.507812 " fill-opacity="1" fill-rule="nonzero"/><path fill="rgb(3.529358%, 3.529358%, 3.529358%)" d="M 269.984375 234.503906 C 269.976562 234.503906 269.960938 234.503906 269.945312 234.503906 C 269.242188 234.386719 268.277344 234.230469 266.933594 234.035156 C 265.046875 233.746094 263.898438 233.597656 263.140625 233.496094 C 261.925781 233.332031 261.699219 233.308594 261.121094 233.105469 C 259.605469 232.574219 258.1875 231.765625 256.921875 230.695312 C 256.8125 230.609375 256.796875 230.445312 256.890625 230.335938 C 256.976562 230.234375 257.140625 230.21875 257.25 230.304688 C 258.46875 231.335938 259.824219 232.117188 261.285156 232.621094 C 261.816406 232.808594 262.003906 232.832031 263.210938 232.988281 C 263.96875 233.089844 265.117188 233.246094 267.003906 233.527344 C 268.355469 233.730469 269.328125 233.878906 270.03125 233.996094 C 270.171875 234.027344 270.265625 234.152344 270.242188 234.292969 C 270.21875 234.417969 270.109375 234.503906 269.984375 234.503906 " fill-opacity="1" fill-rule="nonzero"/></svg>